<svg xmlns="http://www.w3.org/2000/svg" viewBox="0 0 1024 1024" width="1024" height="1024">
  <defs>
    <linearGradient id="tile" x1="0" y1="0" x2="1024" y2="1024" gradientUnits="userSpaceOnUse">
      <stop offset="0" stop-color="#5BE3DC"/>
      <stop offset="0.42" stop-color="#5A6CFF"/>
      <stop offset="1" stop-color="#7B33FF"/>
    </linearGradient>
    <linearGradient id="lit" x1="628" y1="628" x2="772" y2="772" gradientUnits="userSpaceOnUse">
      <stop offset="0" stop-color="#FFFFFF"/>
      <stop offset="1" stop-color="#EAF0FF"/>
    </linearGradient>
    <linearGradient id="sheen" x1="0" y1="0" x2="0" y2="1024" gradientUnits="userSpaceOnUse">
      <stop offset="0" stop-color="#FFFFFF" stop-opacity="0.16"/>
      <stop offset="0.4" stop-color="#FFFFFF" stop-opacity="0"/>
    </linearGradient>
  </defs>

  <rect x="0" y="0" width="1024" height="1024" fill="url(#tile)"/>
  <rect x="0" y="0" width="1024" height="1024" fill="url(#sheen)"/>

  <g fill="#0C0E16">
    <rect x="252" y="252" width="144" height="144" rx="36"/>
    <rect x="440" y="252" width="144" height="144" rx="36"/>
    <rect x="628" y="252" width="144" height="144" rx="36"/>
    <rect x="252" y="440" width="144" height="144" rx="36"/>
    <rect x="440" y="440" width="144" height="144" rx="36"/>
    <rect x="628" y="440" width="144" height="144" rx="36"/>
    <rect x="252" y="628" width="144" height="144" rx="36"/>
    <rect x="440" y="628" width="144" height="144" rx="36"/>
  </g>

  <rect x="596" y="596" width="208" height="208" rx="52" fill="#FFFFFF" opacity="0.13"/>
  <rect x="612" y="612" width="176" height="176" rx="44" fill="#FFFFFF" opacity="0.22"/>
  <rect x="628" y="628" width="144" height="144" rx="36" fill="url(#lit)"/>
</svg>
